<svg height="256pt" preserveAspectRatio="xMidYMid meet" viewBox="0 0 256 256" width="256pt" xmlns="http://www.w3.org/2000/svg"><path d="m1175 2514c-295-32-557-156-760-359-260-259-392-623-356-980 52-522 412-945 919-1081 131-35 382-45 516-20 260 49 461 153 647 334 218 211 349 489 368 780s-48 548-202 780c-183 274-460 459-789 526-79 16-272 27-343 20zm428-470 37-7v-117-117l-104-5c-123-5-150-18-166-78-6-22-9-81-8-131l3-91 128 1c97 2 128-1 132-11 2-7-4-69-13-138l-17-125-118-3-117-3v-344-345h-140-140v345 345h-115-115v140 140h115 115v129c0 237 61 346 223 402 54 19 220 26 300 13z" transform="matrix(.1 0 0 -.1 0 256)"/></svg>